<svg xmlns="http://www.w3.org/2000/svg" viewBox="0 0 1200 630" fill="none">
  <defs>
    <linearGradient id="bg" x1="120" y1="80" x2="1080" y2="550" gradientUnits="userSpaceOnUse">
      <stop stop-color="#4F46E5"/>
      <stop offset="1" stop-color="#7C3AED"/>
    </linearGradient>
  </defs>
  <rect width="1200" height="630" rx="40" fill="#F5F7FF"/>
  <rect x="52" y="52" width="1096" height="526" rx="36" fill="url(#bg)"/>
  <rect x="106" y="118" width="86" height="86" rx="24" fill="rgba(255,255,255,0.18)"/>
  <path d="M136 134H155.8C169.5 134 177 141.5 177 153.8C177 166.4 169.1 173.6 155.5 173.6H144.6V190H136V134ZM154.5 165.7C163.6 165.7 168.3 161.5 168.3 153.8C168.3 146.2 163.6 142 154.5 142H144.6V165.7H154.5Z" fill="white"/>
  <text x="106" y="286" fill="white" font-family="Inter, Arial, sans-serif" font-size="72" font-weight="800">일할 때 막히면, 프롬버튼.</text>
  <text x="106" y="364" fill="rgba(255,255,255,0.92)" font-family="Inter, Arial, sans-serif" font-size="34" font-weight="500">회의록, 메일 답장, 자소서, 고객응대까지.</text>
  <text x="106" y="414" fill="rgba(255,255,255,0.92)" font-family="Inter, Arial, sans-serif" font-size="34" font-weight="500">바로 복붙해 쓰는 AI 프롬프트 예시와 템플릿.</text>
  <rect x="106" y="470" width="318" height="62" rx="18" fill="rgba(255,255,255,0.16)"/>
  <text x="138" y="511" fill="white" font-family="Inter, Arial, sans-serif" font-size="28" font-weight="700">promptbutton</text>
</svg>
